<?xml version="1.0" encoding="iso-8859-1"?>
<!-- Generator: Adobe Illustrator 19.0.0, SVG Export Plug-In . SVG Version: 6.00 Build 0)  -->
<svg version="1.1" id="Layer_1" xmlns="http://www.w3.org/2000/svg" xmlns:xlink="http://www.w3.org/1999/xlink" x="0px" y="0px"
	 viewBox="0 0 290.625 290.625" style="enable-background:new 0 0 290.625 290.625;" xml:space="preserve">
<g>
	<g>
		<path d="M208.592,15.445V0h-56.25v15.445L86.717,38.883v31.43h-4.688v37.5c0,8.714,5.995,15.989,14.063,18.084v14.728h-4.688
			H58.592v-14.728c8.067-2.095,14.063-9.37,14.063-18.084v-37.5h-37.5v37.5c0,8.714,5.995,15.989,14.063,18.084v14.728h-9.375
			c-2.588,0-4.688-2.1-4.688-4.688v-4.688h-18.75v9.375h10.177c1.936,5.456,7.148,9.375,13.261,9.375h4.688v4.688
			c0,7.753,6.309,14.063,14.063,14.063h10.683l1.486,4.448c1.917,5.752,7.275,9.614,13.336,9.614h22.172
			c3.755,0,7.289-1.467,9.942-4.12l3.319-3.314v115.247h121.875v-52.898l5.119,52.898h27.694V38.883L208.592,15.445z
			 M204.477,43.032c2.578-1.748,4.116-4.65,4.116-7.767v-9.862l5.441,1.944l7.819,35.17l-17.25,5.747l12.225,12.225l-29.273,52.041
			l16.209-89.137C203.998,43.262,204.252,43.182,204.477,43.032z M194.239,43.369l-14.086,77.475l-13.472-77.466l13.786-5.517
			L194.239,43.369z M185.154,29.634v-2.353l14.063-2.812v10.79L185.154,29.634z M161.717,9.375h37.5v5.738
			c-0.614,0-1.228,0.037-1.842,0.164l-16.908,3.38l-16.908-3.384c-0.614-0.122-1.233-0.159-1.842-0.159V9.375z M175.779,27.282
			v2.357l-14.063,5.625l-0.009-10.795L175.779,27.282z M146.905,27.347l5.438-1.945v9.863c0,3.112,1.537,6.014,4.12,7.758
			c0.22,0.15,0.473,0.206,0.703,0.337l15.188,87.337l-28.247-50.212l12.225-12.225l-17.246-5.743L146.905,27.347z M91.404,107.813
			V79.688h18.75v28.125c0,5.17-4.205,9.375-9.375,9.375S91.404,112.983,91.404,107.813z M44.529,107.813V79.688h18.75v28.125
			c0,5.17-4.205,9.375-9.375,9.375S44.529,112.983,44.529,107.813z M58.592,159.376c-2.588-0.001-4.688-2.101-4.688-4.688V150h37.5
			v4.688c0,2.587-2.1,4.688-4.688,4.688H58.592z M119.53,162.122l-9.943,9.942c-0.877,0.877-2.081,1.373-3.314,1.373H84.101
			c-2.02,0-3.811-1.284-4.444-3.206l-0.497-1.481h7.556c7.753,0,14.063-6.309,14.063-14.063V150h14.063h4.688V162.122z
			 M264.842,281.25h-9.806l-13.655-141.08l-9.352,0.455V281.25H128.904V140.625h9.375v-9.375h-18.75v4.688
			c0,2.587-2.1,4.688-4.688,4.688h-9.375v-14.728c8.067-2.095,14.063-9.37,14.063-18.084v-37.5H96.092v-24.82l40.373-14.419
			l-8.367,37.658l10.875,3.628l-6.525,6.525l48.019,85.364l48.014-85.364l-6.525-6.525l10.875-3.628l-8.367-37.659l40.378,14.419
			V281.25z"/>
	</g>
</g>
<g>
</g>
<g>
</g>
<g>
</g>
<g>
</g>
<g>
</g>
<g>
</g>
<g>
</g>
<g>
</g>
<g>
</g>
<g>
</g>
<g>
</g>
<g>
</g>
<g>
</g>
<g>
</g>
<g>
</g>
</svg>
